<svg xmlns="http://www.w3.org/2000/svg" viewBox="0 441.31075 2080.288288288288 421.998" version="1.1" style="max-height: 500px" width="2080.288288288288" height="421.998">
<path fill="#302D2F" d="m0 0h6l4 10 27 81 18 53v3h3l3-11 17-50 14-41 12-36 4-9h5l2 6 23 111 10 48v5h-10l-2-6-16-82-10-52-2-1-3 10-28 84-14 41-3 8-4 1-4-4-29-87-14-41-4-11-2-1-1 9-20 103-5 26-1 3h-11l5-27 24-116z" transform="translate(59,486)"/>
<path fill="#353234" d="m0 0h58l12 2 12 5 8 6 6 7 5 11 1 5v16l-5 13-8 10-7 5-5 1v2l9 3 11 8 7 10 3 9v19l-4 11-6 9-8 7-12 6-13 3h-65l-1-7v-159zm10 10-1 16v51l1 1h49l12-3 8-5 7-8 4-11v-14l-4-11-7-8-12-6-13-2zm-1 78v70l1 1 56-1 11-4 6-4 7-7 4-8 1-4v-17l-4-9-7-8-8-5-9-3-6-1z" transform="translate(1684,488)"/>
<path fill="#383537" d="m0 0h67l11 2 12 5 8 6 8 8 6 10 3 10 1 14-3 14-6 11-9 10-10 7-11 5 6 12 12 21 14 25 3 6v2h-12l-6-10-16-29-12-22-2-3-53-1v28l-1 36-1 1h-9l-1-4v-161zm11 11v82h59l11-4 9-6 7-7 5-10 2-8v-13l-3-10-6-9-7-7-12-6-9-2z" transform="translate(1507,488)"/>
<path fill="#302D2F" d="m0 0h67l14 3 12 6 11 10 7 11 4 14v14l-3 12-6 11-9 10-11 7-10 3 7 14 12 21 14 25 2 4v3h-12l-35-63v-2h-54v64l-1 1h-9l-1-1v-166zm10 11v82h59l12-4 11-8 6-8 4-8 2-10-1-12-4-11-7-9-10-7-10-4-6-1z" transform="translate(842,488)"/>
<path fill="#2F2C2E" d="m0 0h59l14 2 12 4 14 7 10 8 6 5 8 10 8 14 5 15 2 14v11l-3 17-5 13-7 12-8 10-11 10-14 8-13 5-14 3h-63l-1-4v-162zm10 10v148h53l16-4 17-9 13-12 7-10 5-10 4-14 1-5v-20l-4-16-8-16-9-11-13-10-12-6-13-4-7-1z" transform="translate(433,488)"/>
<path fill="#2F2C2E" d="m0 0h24l19 5 16 8 15 12 9 11 8 14 6 18 1 6v24l-4 17-6 14-10 14-9 9-8 6-12 7-18 6-6 1h-28l-15-4-12-5-12-8-12-11-10-14-7-16-3-12-1-7v-17l3-16 6-15 9-14 9-10 8-7 15-9 15-5zm1 10-16 4-16 8-11 9-8 9-8 14-4 10-3 17v10l2 14 4 12 7 13 11 12 8 7 12 7 15 5 15 2 15-1 15-4 16-8 13-11 8-10 8-16 4-16v-21l-4-16-8-16-8-10-7-7-14-9-15-6-10-2z" transform="translate(1353,486)"/>
<path fill="#302D2F" d="m0 0h23l17 4 17 8 13 10 8 8 10 15 6 14 3 13 1 8v13l-2 13-6 18-9 15-7 8-8 7-14 9-14 6-13 3h-29l-15-4-16-8-11-8-11-11-9-14-6-14-3-14-1-14 2-17 5-16 7-13 11-14 12-10 14-8 14-5zm0 10-16 4-14 7-10 8-9 9-7 11-6 13-3 14v21l4 16 8 16 8 10 10 9 14 8 14 5 15 2 16-1 15-4 14-7 11-9 7-7 9-14 6-16 2-14v-10l-3-17-7-16-8-11-11-11-11-7-11-5-16-4z" transform="translate(688,486)"/>
<path fill="#322F31" d="m0 0 4 2 9 19 13 30 18 41 17 39 11 25 6 14v2h-11l-6-12-14-32v-2l-93 1-13 30-7 15h-11l3-9 17-38 11-25 19-43 20-45 5-10zm0 20-16 36-23 54-2 4v3h82l1-2-15-36-15-35-10-23z" transform="translate(1080,484)"/>
<path fill="#2B282A" d="m0 0h100l1 1v8l-1 1h-90v67h79v9l-1 1h-78l1 71 90 1v9h-101l-1-1v-165z" transform="translate(270,488)"/>
<path fill="#2F2C2E" d="m0 0h22l12 3 14 6 6 5-3 6-3 2-17-8-10-3-11-1-15 2-10 4-9 8-4 8-2 8 1 10 3 8 5 6 11 7 11 5 25 9 16 8 9 7 7 8 4 9 2 13-2 11-5 10-8 9-13 8-14 4h-24l-16-5-12-6-9-7-3-4 6-7 5 3 10 7 13 6 12 3h15l13-4 9-6 7-8 3-8v-12l-4-10-7-8-14-8-40-16-12-7-9-9-5-11-1-4v-15l4-12 6-8 7-7 12-6z" transform="translate(1959,486)"/>
<path fill="#2B282A" d="m0 0h7l3 1v166l-1 1h-9l-1-1v-166z" transform="translate(1848,488)"/>
<path fill="#353234" d="m0 0 3 1 9 19 10 22 3-3 13-28 5-10 2-1 13 1-1 2-6 1-1 10 1 31 1 8 7 2v2h-23v-2l6-2 1-40-4 4-16 35-2 4h-2l-10-23-8-19-2-1v11l-1 26 1 3 7 3v1h-21l1-2 6-3 2-14 1-16v-17l-7-3v-1z" transform="translate(628,769)"/>
<path fill="#333032" d="m0 0 4 3 16 36 1 5h2l2-6 14-30 3-7h15v2l-7 2v22l1 24 3 3 5 2v1h-23v-2l6-2 1-42-3 3-19 42-3-1-16-38-2-3-1 5-1 18v14l3 3 5 2v1h-21v-2l6-2 2-8 2-28v-12l-8-3v-1z" transform="translate(1278,769)"/>
<path fill="#343133" d="m0 0h10l6 4 2 4v7l-7 8-3 1 13 13 2 1 2-5 3-6-1-3-5-2v-2h20v2l-8 4-9 14 6 7 7 9v3l-8-2-8-7v-2l-5 2-8 7-3 1h-10l-6-3-4-5-2-5 1-8 7-8 4-4-5-8v-7l4-6zm3 2-5 4-1 2v7l6 7 3 1 6-7v-7l-3-5-3-2zm-5 26-6 6-1 3v7l4 6 6 3 9-1 8-7-6-7-7-7-4-3z" transform="translate(990,769)"/>
<path fill="#403D3F" d="m0 0 13 1 13 15 9 11 11 13 2 3v-39l-7-1v-3l20 1-2 2-5 3-1 50v2l-4-1-9-11-13-16-9-11-5-4 1 37 8 4v1h-21v-2l6-2 1-2v-44l-4-3-4-2z" transform="translate(1447,769)"/>
<path fill="#373436" d="m0 0h15l8 10 11 13 9 11 5 6 3 1-1-28-1-9-8-3v-1h21l-1 2-5 2-1 3-1 50-4-2-12-14-11-14-12-14v38l8 4v1h-21v-2l6-2 1-1v-47l-9-3z" transform="translate(796,770)"/>
<path fill="#363435" d="m0 0h10l11 2 2 7v8l-3-3-4-7-7-3h-11l-8 4-3 1-2 4-3 7-1 5v8l3 10 4 6 6 5 8 2h7l5-2 1-2v-16l-9-2v-2h22l-1 3-3 1-1 20-6 2-4 1h-19l-9-4-8-7-4-8-1-3v-13l4-10 7-8 11-5z" transform="translate(1551,768)"/>
<path fill="#333133" d="m0 0h10l11 2 2 6v9l-3-4-4-6-6-3h-12l-8 4-6 7-2 6v16l4 10 8 7 8 2h7l5-2 1-2v-14l-1-2-8-2v-2h22v2l-4 2-1 20-6 2-4 1h-19l-9-4-7-6-5-9-1-4v-12l4-10 6-7 12-6z" transform="translate(1096,768)"/>
<path fill="#322F31" d="m0 0h9l11 2 2 5v10l-3-4-4-6-6-3h-12l-8 4-6 7-2 7v15l4 9 5 6 6 3 5 1h7l5-2 1-1v-15l-1-2-7-2v-2h21l1 2-6 1v22l-10 2h-18l-10-4-7-6-5-10-1-5v-8l3-10 6-8 8-5z" transform="translate(902,768)"/>
<path fill="#322F31" d="m0 0 17 1 8 4 4 8v7l-4 8-5 4-5 2h-11l-3-1 1 21 8 1 1 2h-25v-2l7-2 1-49-7-2v-1zm3 3-2 3v24l2 1h9l6-4 3-7v-7l-3-6-6-4z" transform="translate(1365,769)"/>
<path fill="#363335" d="m0 0 18 1 7 3 4 5 1 3v9l-3 6-6 5-5 2h-10l-4-1 1 17 1 3 8 3v1h-24v-2l7-1v-45l-1-5-6-2v-1zm4 3-2 3v24l2 1h9l6-3 3-6v-10l-3-5-6-4z" transform="translate(714,769)"/>
<path fill="#322F31" d="m0 0 3 1 14 40 5 12 7 3v2h-22v-2l6-1-5-16v-2l-19 1-5 17 7 2v1h-19v-2l6-3 4-9 11-27zm-2 12-7 18v4h15l-2-9-4-12z" transform="translate(572,768)"/>
<path fill="#322F31" d="m0 0h2l14 39 6 14v2l7 2v1h-22v-2l6-1-5-15-1-2h-18l-5 15 3 2 3 1v2h-19l1-2 6-3 12-29 9-23zm-2 12-5 12-3 7v3h16l-3-12-4-10z" transform="translate(1222,768)"/>
<path fill="#343133" d="m0 0h10l10 2 2 7v7h-2l-5-9-6-3h-12l-8 4-4 5-4 11v11l4 11 5 6 6 3 10 1 8-3 5-6 3-4h2l-3 11-4 4-5 1h-18l-10-4-6-5-5-9-2-11 2-10 6-10 8-6 7-3z" transform="translate(507,768)"/>
<path fill="#2F2C2E" d="m0 0 3 1-2 2-5 2v49l18-1 5-8 1-2h2l-1 9-2 5h-39v-2l7-1v-49l-7-3v-1z" transform="translate(1159,769)"/>
<path fill="#413F41" d="m0 0h23l-2 2-4 1-1 7v43l8 1v2h-24v-2l8-1-1-50-7-2z" transform="translate(1409,770)"/>
<path fill="#2E2B2D" d="m0 0h23l-1 2-6 2v48l7 2v2h-23v-2l7-1v-48l-1-2-6-1z" transform="translate(760,770)"/>
</svg>